# xmcd
#
# Track frame offsets: 
#        150
#        16385
#        30584
#        45576
#        60788
#        74847
#        89892
#        101012
#        116631
#        132395
#        144724
#        163590
#
# Disc length: 2428 seconds
#
# Revision: 0
# Processed by: cddbd v1.5.2PL0 Copyright (c) Steve Scherf et al.
# Submitted via: ExactAudioCopy v0.99pb3
#
DISCID=ac097a0c
DTITLE=Michael Hearne - Red River Dreams
DYEAR=2016
DGENRE=Country
TTITLE0=Red River Dreams
TTITLE1=Blue Enough
TTITLE2=Magic
TTITLE3=June 25, 2009
TTITLE4=The Highway Is A Friend Of Mine
TTITLE5=Back In The Day
TTITLE6=On Our Way Down to the Sea
TTITLE7=Endless Sky
TTITLE8=Drunken Lady of the Morning
TTITLE9=Lesson To Be Learned From Love
TTITLE10=Early Morning Rain
TTITLE11=Return Of The Grievous Angel
EXTD=
EXTT0=
EXTT1=
EXTT2=
EXTT3=
EXTT4=
EXTT5=
EXTT6=
EXTT7=
EXTT8=
EXTT9=
EXTT10=
EXTT11=
PLAYORDER=
